<?xml version="1.0" encoding="UTF-8" standalone="no"?>
<svg
   width="128"
   height="128"
   viewBox="0 0 128 128"
   version="1.1"
   id="svg28"
   sodipodi:docname="logo.svg"
   inkscape:version="1.1 (c68e22c387, 2021-05-23)"
   xmlns:inkscape="http://www.inkscape.org/namespaces/inkscape"
   xmlns:sodipodi="http://sodipodi.sourceforge.net/DTD/sodipodi-0.dtd"
   xmlns="http://www.w3.org/2000/svg"
   xmlns:svg="http://www.w3.org/2000/svg">
  <defs
     id="defs32" />
  <sodipodi:namedview
     id="namedview30"
     pagecolor="#ffffff"
     bordercolor="#666666"
     borderopacity="1.0"
     inkscape:pageshadow="2"
     inkscape:pageopacity="0.0"
     inkscape:pagecheckerboard="0"
     showgrid="false"
     inkscape:zoom="6.1875"
     inkscape:cx="64"
     inkscape:cy="64"
     inkscape:window-width="1920"
     inkscape:window-height="1112"
     inkscape:window-x="-9"
     inkscape:window-y="-9"
     inkscape:window-maximized="1"
     inkscape:current-layer="svg28" />
  <g
     fill="none"
     fill-rule="evenodd"
     id="g26"
     transform="matrix(1.5484824,0,0,1.5484824,5.9319103,1.2864645)"
     style="stroke-width:0.645793">
    <path
       stroke="#e3e3e3"
       stroke-width="2.58317"
       d="M 5.0667155,22 H 68.933284 C 68.018237,8.6236338 57.675659,2 37,2 16.324341,2 5.9817627,8.6236338 5.0667155,22 Z"
       id="path2" />
    <path
       fill="#e3e3e3"
       fill-rule="nonzero"
       d="m 18.011719,24 v 25.524414 c 0,7.025815 -3.35454,12.307301 -7.991343,12.710381 C 5.1401213,62.659039 1.7870285,57.694542 1.6850115,49.892217 l -0.00239,-0.367803 h 4 c 0,5.979126 1.929177,8.904675 3.9913426,8.72541 2.1602459,-0.187792 4.2451339,-3.400445 4.3347609,-8.390144 l 0.003,-0.335266 V 24 Z"
       id="path4"
       style="stroke-width:0.630233" />
    <circle
       cx="4"
       cy="48"
       r="2"
       stroke="#e3e3e3"
       stroke-width="2.58317"
       id="circle6" />
    <path
       fill="#e3e3e3"
       fill-rule="nonzero"
       d="m 73.329102,24 v 25.524414 c 0,7.025815 -3.354541,12.307301 -7.991343,12.710381 -4.880255,0.424244 -8.233348,-4.540253 -8.335365,-12.342578 L 57,49.524414 h 4 c 0,5.979126 1.929177,8.904675 3.991343,8.72541 2.160246,-0.187792 4.245134,-3.400445 4.334761,-8.390144 l 0.003,-0.335266 V 24 Z"
       transform="matrix(-1,0,0,1,130.33,0)"
       id="path8"
       style="stroke-width:0.630233" />
    <circle
       cx="71"
       cy="48"
       r="2"
       stroke="#e3e3e3"
       stroke-width="2.58317"
       id="circle10" />
    <circle
       cx="26"
       cy="77"
       r="2"
       stroke="#e3e3e3"
       stroke-width="2.58317"
       id="circle12" />
    <polygon
       fill="#e3e3e3"
       fill-rule="nonzero"
       points="24,75 24,23 28,23 28,75 "
       id="polygon14"
       style="stroke-width:0.630233" />
    <circle
       cx="37"
       cy="67"
       r="2"
       stroke="#e3e3e3"
       stroke-width="2.58317"
       id="circle16" />
    <polygon
       fill="#e3e3e3"
       fill-rule="nonzero"
       points="35,65 35,23 39,23 39,65 "
       id="polygon18"
       style="stroke-width:0.630233" />
    <circle
       cx="49"
       cy="55"
       r="2"
       stroke="#e3e3e3"
       stroke-width="2.58317"
       id="circle20" />
    <polygon
       fill="#e3e3e3"
       fill-rule="nonzero"
       points="47,53 47,23 51,23 51,53 "
       id="polygon22"
       style="stroke-width:0.630233" />
    <polygon
       fill="#ff7163"
       points="34.741,32 34.741,-4 38.741,-4 38.741,32 "
       transform="rotate(-90,36.741,14)"
       id="polygon24"
       style="stroke-width:0.630233" />
  </g>
</svg>
